<?xml version="1.0" encoding="utf-8" ?>
<svg baseProfile="full" height="200mm" version="1.1" viewBox="0,0,200,200" width="200mm" xmlns="http://www.w3.org/2000/svg" xmlns:ev="http://www.w3.org/2001/xml-events" xmlns:xlink="http://www.w3.org/1999/xlink"><defs /><rect fill="#1a1a1a" height="200" width="200" x="0" y="0" /><text alignment-baseline="middle" fill="#e1ed5e" style="dominant-baseline: central; font-size:9.0px; font-family:Arial;" text-anchor="middle" x="100.0" y="100.0">2022</text><line stroke="#e1ed5e" stroke-width="0.3" x1="100.0" x2="100.0" y1="15.0" y2="10.0" /><path d="M 100.0 14.0 a86.0,86.0 0 0,1 42.46469731375804,11.215312516191453" fill="none" id="id1" stroke="none" /><text fill="#e1ed5e" style="font-size:6.75px; font-family:Arial;" text-anchor="middle"><textPath startOffset="22.20632615414155" xlink:href="#id1">January</textPath></text><line stroke="#e1ed5e" stroke-width="0.3" x1="143.23703022742887" x2="145.7803849466894" y1="26.81831364943548" y2="22.513508569990506" /><path d="M 143.74570117128098 25.957352633546492 a86.0,86.0 0 0,1 28.547481713284135,27.462654790039103" fill="none" id="id2" stroke="none" /><text fill="#e1ed5e" style="font-size:6.75px; font-family:Arial;" text-anchor="middle"><textPath startOffset="19.985693538727396" xlink:href="#id2">February</textPath></text><line stroke="#e1ed5e" stroke-width="0.3" x1="172.23445277983987" x2="176.4835382374775" y1="55.19839476539836" y2="52.563006222186495" /><path d="M 173.08426987136738 54.67131705675599 a86.0,86.0 0 0,1 12.851231095245387,41.99856678651699" fill="none" id="id3" stroke="none" /><text fill="#e1ed5e" style="font-size:6.75px; font-family:Arial;" text-anchor="middle"><textPath startOffset="22.20632615414155" xlink:href="#id3">March</textPath></text><path d="M 118.21658344932153 89.55222093294921 l 6.634766436637842 -3.8052455930784195 a28.64853055772014,28.64853055772014 0 0,0 0.24166039411906456,0.4298868759464082 l -6.69928447204934 3.6904752071972173" fill="#ff4106" stroke="none" /><line stroke="#e1ed5e" stroke-width="0.3" x1="184.98032266829074" x2="189.97916517819016" y1="98.17113171792111" y2="98.06355123074" /><path d="M 185.9800911702706 98.14961562048488 a86.0,86.0 0 0,1 -9.607161424134198,41.387399972396054" fill="none" id="id4" stroke="none" /><text fill="#e1ed5e" style="font-size:6.75px; font-family:Arial;" text-anchor="middle"><textPath startOffset="21.466115282336823" xlink:href="#id4">April</textPath></text><path d="M 120.99980553446 99.90962569577887 l 7.3299443675052105 -0.031544988409813346 a28.330012245352332,28.330012245352332 0 0,0 -0.0020987179446908307,0.4876681385270674 l -7.329401352271017 -0.0946326283209388" fill="#ff3c05" stroke="none" /><path d="M 120.9904718944345 100.63252640178507 l 7.312374260786594 0.22035091935724757 a28.31569353222754,28.31569353222754 0 0,0 -0.018874253156674577,0.48706060811518725 l -7.307497874778717 -0.346188774486441" fill="#ff3c05" stroke="none" /><path d="M 120.9764740272857 100.99374915477107 l 12.076709289838012 0.5721275955902541 a33.09025381275743,33.09025381275743 0 0,0 -0.03185117998160354,0.5687242149839883 l -12.065071758968879 -0.7799235269096656" fill="#ff800b" stroke="none" /><path d="M 120.92983693683757 101.71520430193887 l 12.015055631620363 0.9846361999657289 a33.05533368585105,33.05533368585105 0 0,0 -0.051354457461756285,0.5666921587925599 l -11.996326577881531 -1.1913097473068595" fill="#ff7f0b" stroke="none" /><path d="M 120.81339534386255 102.79330883721812 l 7.274725373582594 0.9763209864917703 a28.339947678949127,28.339947678949127 0 0,0 -0.06904953891110943,0.4829323143214397 l -7.256841783654883 -1.1013987727936194" fill="#ff3c05" stroke="none" /><path d="M 120.64145759157962 103.86396538481128 l 7.216783684699349 1.3509415322842573 a28.342139318713127,28.342139318713127 0 0,0 -0.09389354914361607,0.4787611842305404 l -7.192460202580069 -1.4749664435827428" fill="#ff3c05" stroke="none" /><path d="M 120.32669344350535 105.2749913415812 l 29.840900659346232 7.74402846387842 a51.82935823221641,51.82935823221641 0 0,0 -0.23153389513025552,0.8616237565028232 l -29.7031786878742 -8.256543153556793" fill="#91ff24" stroke="none" /><path d="M 120.02730092923936 106.31721596034902 l 11.17868624796997 3.526095474917902 a32.72162000445286,32.72162000445286 0 0,0 -0.17405992922853197,0.5357013786685464 l -11.116334067725191 -3.7179957535642436" fill="#ff7b0b" stroke="none" /><path d="M 119.9155931802556 106.66101706037122 l 13.003443493320068 4.349162898067719 a34.71148280084604,34.71148280084604 0 0,0 -0.1943994594731352,0.5650158255988307 l -12.926653202903703 -4.57235142675585" fill="#ff960d" stroke="none" /><path d="M 119.67450827220406 107.3425965602758 l 57.697773309485555 21.533014496546855 a82.58493125904486,82.58493125904486 0 0,0 -0.5085097157700723,1.3275584060837318 l -57.31856931412198 -22.52299646946373" fill="#4bdfff" stroke="none" /><path d="M 119.54520255179757 107.68017299344265 l 3.080251468056098 1.2103667933490305 a24.309522152955584,24.309522152955584 0 0,0 -0.1563882329293478,0.3881427688250065 l -3.0589606208693576 -1.2632089300168505" fill="#ff0000" stroke="none" /><path d="M 119.12269723197855 108.67885076344098 l 12.607877623683281 5.722094901795019 a34.84561115440276,34.84561115440276 0 0,0 -0.2525898337823432,0.544056030520648 l -12.507513173061106 -5.938270999594497" fill="#ff980e" stroke="none" /><line stroke="#e1ed5e" stroke-width="0.3" x1="174.80103733775053" x2="179.2010983576182" y1="140.37084112569926" y2="142.7455964860345" /><path d="M 175.68104954172406 140.8457921977663 a86.0,86.0 0 0,1 -30.038265399797805,32.042727171017184" fill="none" id="id5" stroke="none" /><text fill="#e1ed5e" style="font-size:6.75px; font-family:Arial;" text-anchor="middle"><textPath startOffset="22.206326154141568" xlink:href="#id5">May</textPath></text><path d="M 117.94076556474637 110.91462005526583 l 24.41228809831168 14.851698959621668 a49.57503757096738,49.57503757096738 0 0,0 -0.44979988795516895,0.72522063878598 l -24.153023570688546 -15.269715929772921" fill="#abff21" stroke="none" /><path d="M 117.14729908036423 112.12312394758627 l 10.74092268872587 7.593822004071522 a34.15422186351998,34.15422186351998 0 0,0 -0.343526753964877,0.47712861555823827 l -10.60861614238539 -7.777584225080892" fill="#ff8f0d" stroke="none" /><path d="M 115.80600337817218 113.82643327865902 l 23.415380797667655 20.48279963930923 a52.10988812200824,52.10988812200824 0 0,0 -0.5963881169495169,0.6700483716598017 l -23.0593338310698 -20.8828221807099" fill="#8eff24" stroke="none" /><path d="M 115.07121518719521 114.62390073753431 l 6.288306409056752 6.101669148177079 a29.762029667149058,29.762029667149058 0 0,0 -0.3599212595879896,0.36459833572874145 l -6.182344524413227 -6.209007977886485" fill="#ff5107" stroke="none" /><path d="M 114.55890576462653 115.13401014063108 l 10.128370453211915 10.528460285758939 a35.609324557497494,35.609324557497494 0 0,0 -0.4453949296572382,0.42114870614072597 l -9.945639689163869 -10.701243628645587" fill="#ffa30f" stroke="none" /><path d="M 114.0293411484842 115.62618273729858 l 10.58145056774901 11.785847848970636 a36.83898057441834,36.83898057441834 0 0,0 -0.4754993998010361,0.41957293495719344 l -10.377008815041387 -11.96624392570012" fill="#ffb310" stroke="none" /><path d="M 112.63410532772338 116.77436683061366 l 4.852854369556553 6.443159785272797 a29.066257096738283,29.066257096738283 0 0,0 -0.4022424364757244,0.29756933824622933 l -4.741226962662265 -6.525739072258795" fill="#ff4706" stroke="none" /><path d="M 111.7513745106137 117.40417183066458 l 10.425534806004222 15.440559657629006 a39.63069130579984,39.63069130579984 0 0,0 -0.5686538093744582,0.37687273710891955 l -10.1582062978898 -15.617730415829245" fill="#ffd814" stroke="none" /><path d="M 111.1453310114006 117.79835938074945 l 8.548207095157215 13.65092358271385 a37.10650673494378,37.10650673494378 0 0,0 -0.5442655186768837,0.3343323347600869 l -8.311962376548022 -13.796044384302315" fill="#ffb711" stroke="none" /><line stroke="#e1ed5e" stroke-width="0.3" x1="143.8653032363475" x2="146.44561519142675" y1="172.8068346515853" y2="177.08958963109032" /><path d="M 144.38136562736335 173.6633856474863 a86.0,86.0 0 0,1 -40.68145358897372,12.25698825130547" fill="none" id="id6" stroke="none" /><text fill="#e1ed5e" style="font-size:6.75px; font-family:Arial;" text-anchor="middle"><textPath startOffset="21.466115282336833" xlink:href="#id6">June</textPath></text><path d="M 110.5260780823613 118.17145234162733 l 3.2926217891077676 5.684141752666306 a27.568928809974395,27.568928809974395 0 0,0 -0.41268222695605383,0.23433173881017574 l -3.1942907952305144 -5.73997665727111" fill="#ff3104" stroke="none" /><path d="M 110.21172684928248 118.3499491758327 l 7.114133706853609 12.7837332390079 a35.62992597127908,35.62992597127908 0 0,0 -0.5384821770520362,0.2936234174493897 l -6.893028717932924 -12.90429730821706" fill="#ffa30f" stroke="none" /><path d="M 109.89434966115114 118.52300852407294 l 4.82147154046326 9.02617771769606 a31.23320438606256,31.23320438606256 0 0,0 -0.4763942622907237,0.24922696224718685 l -4.66538637564604 -9.107834098887963" fill="#ff6609" stroke="none" /><path d="M 109.2508944713604 118.85261126421891 l 3.220383321134684 6.5628934653924675 a28.310433596793942,28.310433596793942 0 0,0 -0.4393338891721787,0.21090696507912338 l -3.1069367639622727 -6.617354706971151" fill="#ff3c05" stroke="none" /><path d="M 107.59598834532513 119.57807347666477 l 5.283441993699896 13.61766380618707 a35.6066945897807,35.6066945897807 0 0,0 -0.5733182752904222,0.21677991482010578 l -5.048253497649199 -13.706591971113806" fill="#ffa30f" stroke="none" /><path d="M 107.2578585660854 119.70592522655815 l 2.819459501132781 7.655158557133247 a29.157867638873427,29.157867638873427 0 0,0 -0.47246914339313745,0.16941062517382469 l -2.687270797109909 -7.7025567233470325" fill="#ff4806" stroke="none" /><path d="M 106.57524785965236 119.94407469862006 l 4.47500953456066 13.573621305134111 a35.292267338305685,35.292267338305685 0 0,0 -0.5785892537106104,0.18524600779171668 l -4.240698935759109 -13.648640159585533" fill="#ff9e0e" stroke="none" /><path d="M 105.88484417918355 120.15858648285463 l 2.086440287785507 7.147119907000071 a28.44543860625626,28.44543860625626 0 0,0 -0.4712038809862151,0.13316692349505374 l -1.9631052386946863 -7.181975623833643" fill="#ff3e05" stroke="none" /><path d="M 105.18746579009965 120.34920634021253 l 3.608935484273382 14.157003787505086 a35.609762885450294,35.609762885450294 0 0,0 -0.5952709662862113,0.14630312064249568 l -3.3647112332439595 -14.217028166461612" fill="#ffa30f" stroke="none" /><path d="M 104.48393922423573 120.51570834832081 l 1.8786447470571292 8.595506271006226 a29.798410887231437,29.798410887231437 0 0,0 -0.5020443908446793,0.10520828338768251 l -1.7304088947830718 -8.626570535120448" fill="#ff5107" stroke="none" /><path d="M 103.7750983002368 120.6578951692458 l 2.554852302015157 13.98052893738547 a35.21205332294333,35.21205332294333 0 0,0 -0.5971813813117757,0.10382763785479901 l -2.313821949231331 -14.022435153761275" fill="#ff9d0e" stroke="none" /><path d="M 103.41894727170886 120.7198165907248 l 1.9098367722621143 11.574167278606266 a32.73067878214405,32.73067878214405 0 0,0 -0.5566773628919767,0.0869415554355317 l -1.7103235457616206 -11.605327141388903" fill="#ff7b0b" stroke="none" /><path d="M 103.06178313531738 120.77559828337769 l 2.227828121809886 15.116832269812694 a36.280112434598685,36.280112434598685 0 0,0 -0.6186129033979496,0.08573411159734248 l -1.967286627225106 -15.152940946902639" fill="#ffac0f" stroke="none" /><path d="M 100.90346689309514 120.98055641714683 l 0.6295818046012622 14.620321642770898 a35.633870922854285,35.633870922854285 0 0,0 -0.6130377312133157,0.021114258988172922 l -0.3778237217132942 -14.628992700185165" fill="#ffa30f" stroke="none" /><line stroke="#e1ed5e" stroke-width="0.3" x1="102.19456741930631" x2="102.32365962044197" y1="184.97166512339345" y2="189.96999836594603" /><path d="M 102.22038585953345 185.97133177190398 a86.0,86.0 0 0,1 -42.740103519485714,-10.115201625700543" fill="none" id="id7" stroke="none" /><text fill="#e1ed5e" style="font-size:6.75px; font-family:Arial;" text-anchor="middle"><textPath startOffset="22.20632615414155" xlink:href="#id7">July</textPath></text><path d="M 100.18074693466247 120.99922214144158 l 0.0721840841702755 8.386364180387583 a29.386674830234888,29.386674830234888 0 0,0 -0.5058620376654561,0.0 l 0.07218408417026972 -8.386364180387583" fill="#ff4b07" stroke="none" /><path d="M 99.81925306533755 120.99922214144158 l -0.07714516800392328 8.962744087907254 a29.963076088166538,29.963076088166538 0 0,0 -0.5157077863369761,-0.008878377225946865 l 0.2314126442335674 -8.960088233402146" fill="#ff5407" stroke="none" /><path d="M 99.09653310690486 120.98055641714683 l -0.7036365710180581 16.34004177489829 a37.35518479349883,37.35518479349883 0 0,0 -0.6421746389081942,-0.03319309365144502 l 0.9847992783397412 -16.325508874484644" fill="#ffba11" stroke="none" /><path d="M 98.37488393609728 120.93702456842531 l -0.5854479263383261 7.542561352721293 a28.56524824668819,28.56524824668819 0 0,0 -0.4899017367222959,-0.04227078324340164 l 0.7151939808021638 -7.531366317199228" fill="#ff3f05" stroke="none" /><path d="M 98.01472825383883 120.90594882070398 l -0.3387150294957445 3.5668462441646924 a24.582892686185016,24.582892686185016 0 0,0 -0.42091461386166173,-0.04362952074277981 l 0.40006223996299956 -3.560487354966152" fill="#ff0400" stroke="none" /><path d="M 97.65516085044442 120.86867818915974 l -3.1133625953567825 27.708408954610782 a48.882771624179,48.882771624179 0 0,0 -0.8353660105314067,-0.10115119025563006 l 3.5898560289395784 -27.650712235629804" fill="#b3ff20" stroke="none" /><path d="M 95.86986931433489 120.58985236759428 l -1.443856078369759 7.198024894677045 a28.341408772125128,28.341408772125128 0 0,0 -0.4774967818427595,-0.10006409324940096 l 1.5675443216419052 -7.172104820701103" fill="#ff3c05" stroke="none" /><path d="M 95.16358092515715 120.4354850818985 l -3.372585287454078 14.250298674011743 a35.64395246576868,35.64395246576868 0 0,0 -0.5958424967560588,-0.14644358892671672 l 3.6173810689533474 -14.190133826770996" fill="#ffa30f" stroke="none" /><path d="M 94.81253420990036 120.34920634021253 l -1.8086183499922288 7.0947837506567275 a28.321684014249136,28.321684014249136 0 0,0 -0.47136663041205423,-0.12449221127645997 l 1.9304754232157724 -7.062600190076686" fill="#ff3c05" stroke="none" /><path d="M 94.46302465271185 120.25689768951611 l -1.9324016224766296 7.06964714602456 a28.328989480129135,28.328989480129135 0 0,0 -0.46927487996329537,-0.13262176853770616 l 2.053807670544539 -7.035336584148333" fill="#ff3c05" stroke="none" /><path d="M 93.42475214034765 119.94407469862007 l -2.291784598527387 6.951452508224362 a28.31949237448514,28.31949237448514 0 0,0 -0.46164854226855695,-0.15661625033019455 l 2.4111028737331694 -6.9109732709960445" fill="#ff3c05" stroke="none" /><path d="M 92.40401165467489 119.57807347666478 l -11.241193901250954 28.97330935211006 a52.07759796281865,52.07759796281865 0 0,0 -0.8329413126702977,-0.33144453826109105 l 11.73825628996311 -28.7755179694429" fill="#8fff24" stroke="none" /><path d="M 91.40352486487194 119.15986991738527 l -2.9966366833197817 6.678919922359156 a28.320369030390736,28.320369030390736 0 0,0 -0.44305464753145585,-0.20338465822349414 l 3.111159326618657 -6.626348193801587" fill="#ff3c05" stroke="none" /><path d="M 91.07499286063937 119.00905698771935 l -3.1538196287500493 6.717208862220846 a28.420746131581875,28.420746131581875 0 0,0 -0.4410457681077933,-0.21172877099893286 l 3.268978064858085 -6.661925814722351" fill="#ff3d05" stroke="none" /><path d="M 90.10565033884886 118.52300852407294 l -6.882496076428444 12.884579366659523 a35.6075712456863,35.6075712456863 0 0,0 -0.5381443256258556,-0.29343919391410356 l 7.10326321392294 -12.764199520985654" fill="#ffa30f" stroke="none" /><line stroke="#e1ed5e" stroke-width="0.3" x1="58.666819895761336" x2="56.23545636021788" y1="174.27360380694188" y2="178.64263932499728" /><path d="M 58.180547188652646 175.14741091055294 a86.0,86.0 0 0,1 -31.652253787137756,-30.449443065178592" fill="none" id="id8" stroke="none" /><text fill="#e1ed5e" style="font-size:6.75px; font-family:Arial;" text-anchor="middle"><textPath startOffset="22.20632615414155" xlink:href="#id8">August</textPath></text><path d="M 88.8546689885994 117.79835938074946 l -7.772373320464301 12.411968155765742 a35.64468301235667,35.64468301235667 0 0,0 -0.5172182654349508,-0.3301131683358396 l 7.984873387946175 -12.276340558606098" fill="#ffa30f" stroke="none" /><path d="M 87.36589467227662 116.77436683061367 l -3.815688272750027 5.066109007175205 a27.342313258376933,27.342313258376933 0 0,0 -0.373510674779047,-0.28639205810832885 l 3.902327676022561 -4.9996776072395095" fill="#ff2d04" stroke="none" /><path d="M 82.24976979558568 111.22182372390057 l -6.19445095314075 3.9161766276814864 a28.328551152176335,28.328551152176335 0 0,0 -0.25702812864117436,-0.41441118290739726 l 6.26094372144988 -3.808969113408825" fill="#ff3c05" stroke="none" /><line stroke="#e1ed5e" stroke-width="0.3" x1="26.63291911575756" x2="22.317208475507996" y1="142.92168965132927" y2="145.44649492493687" /><path d="M 25.769776987707644 143.4266507060508 a86.0,86.0 0 0,1 -11.730757126820373,-40.83630448921669" fill="none" id="id9" stroke="none" /><text fill="#e1ed5e" style="font-size:6.75px; font-family:Arial;" text-anchor="middle"><textPath startOffset="21.46611528233685" xlink:href="#id9">September</textPath></text><path d="M 81.87401531095188 110.60418214915194 l -6.307042610235905 3.689787330660955 a28.307073082489147,28.307073082489147 0 0,0 -0.242427170888307,-0.4226922066908151 l 6.36962177727659 -3.580675278111833" fill="#ff3c05" stroke="none" /><path d="M 80.32549172779594 107.34259656027581 l -6.8692681601062 2.563635343063013 a28.33205777579873,28.33205777579873 0 0,0 -0.16658675100521078,-0.4583751926036947 l 6.912379172116636 -2.445012353453201" fill="#ff3c05" stroke="none" /><path d="M 79.1416061653843 102.43462659150553 l -14.545931707373413 1.697825461240614 a35.64468301235667,35.64468301235667 0 0,0 -0.06588783610782091,-0.6100395323758102 l 14.573001844982286 -1.4471896069800219" fill="#ffa30f" stroke="none" /><line stroke="#e1ed5e" stroke-width="0.3" x1="15.007084014347285" x2="10.007500721073583" y1="101.09737516637583" y2="101.16192664675087" /><path d="M 14.007167355692545 101.11028546245083 a86.0,86.0 0 0,1 10.666146001902534,-42.60595125391555" fill="none" id="id10" stroke="none" /><text fill="#e1ed5e" style="font-size:6.75px; font-family:Arial;" text-anchor="middle"><textPath startOffset="22.20632615414155" xlink:href="#id10">October</textPath></text><path d="M 79.00175016825051 100.2711162175752 l -14.63864129913194 0.18900494523405542 a35.63986140487587,35.63986140487587 0 0,0 -0.002640239475681064,-0.6134986712379652 l 14.639725835897124 0.06300320420758519" fill="#ffa30f" stroke="none" /><path d="M 79.03285615573316 98.82574320788736 l -10.647395968506517 -0.5963032984938607 a31.6640807636647,31.6640807636647 0 0,0 0.035161316657009056,-0.5439300059167911 l 10.635554060845095 0.7794923686636634" fill="#ff6c09" stroke="none" /><path d="M 79.12142395522702 97.74499172005258 l -9.747247944758625 -1.0527597655604486 a30.803935210954023,30.803935210954023 0 0,0 0.06147533575197148,-0.5266831343680148 l 9.727682256003064 1.2203866382533253" fill="#ff6008" stroke="none" /><path d="M 79.26566170972629 96.67025291283419 l -19.832707332393472 -3.1849533149378075 a41.08681676500055,41.08681676500055 0 0,0 0.11815030383324168,-0.697329781329033 l 19.774945167040006 3.5258688845826684" fill="#ffeb16" stroke="none" /><path d="M 79.54389044137918 95.25157060432595 l -30.3156845173864 -7.037109725083208 a52.12172297673383,52.12172297673383 0 0,0 0.21039107153901315,-0.8722068193039054 l 30.190060645586573 7.55790177604651" fill="#8eff24" stroke="none" /><path d="M 79.71946130924805 94.55025226153421 l -7.341479374520852 -1.9727883577635281 a28.601921685405763,28.601921685405763 0 0,0 0.1318592574462938,-0.4743679058820693 l 7.306433346508197 2.09886756706454" fill="#ff4006" stroke="none" /><path d="M 80.2630227832202 92.82701384747504 l -29.19240206954747 -10.6093599594259 a52.060503172659466,52.060503172659466 0 0,0 0.31334327244383886,-0.8396041856757298 l 29.005454208602004 11.11028728213097" fill="#8fff24" stroke="none" /><path d="M 80.38941819471856 92.48833698450439 l -4.566588016537936 -1.749191872603966 a25.89013275075142,25.89013275075142 0 0,0 0.16299250209850538,-0.41479813939862387 l 4.535801964557739 1.8275390168983532" fill="#ff1802" stroke="none" /><path d="M 81.43458229118936 90.18545643968196 l -7.766376347978401 -4.105667869615679 a29.784822720694645,29.784822720694645 0 0,0 0.2435148965408053,-0.4511961197868574 l 7.694553352219124 4.2387449727350095" fill="#ff5107" stroke="none" /><line stroke="#e1ed5e" stroke-width="0.3" x1="26.266209847984243" x2="21.928928074336255" y1="57.711370442889674" y2="55.22380399835377" /><path d="M 25.398753493254645 57.213857153982495 a86.0,86.0 0 0,1 29.58750427330803,-30.492523968695096" fill="none" id="id11" stroke="none" /><text fill="#e1ed5e" style="font-size:6.75px; font-family:Arial;" text-anchor="middle"><textPath startOffset="21.46611528233685" xlink:href="#id11">November</textPath></text><path d="M 84.31358615837235 86.03803664274999 l -23.660588260840917 -21.059514918074044 a52.675331181119894,52.675331181119894 0 0,0 0.6086668616073657,-0.6721051509349582 l 23.294577758617503 21.463672856278556" fill="#88ff25" stroke="none" /><path d="M 86.10567301691215 84.25364557470407 l -41.68298094926353 -47.23906327588782 a84.0,84.0 0 0,0 1.092424805412906,-0.9473400263212777 l 40.863662345203856 47.94956829562878" fill="#4dd2ff" stroke="none" /><path d="M 88.09926311788651 82.69761687909137 l -2.552984945773997 -3.7117637396121532 a25.504988589558053,25.504988589558053 0 0,0 0.36386546907839845,-0.24568358898219317 l 2.488714782289059 3.7551592408930117" fill="#ff1202" stroke="none" /><line stroke="#e1ed5e" stroke-width="0.3" x1="56.762969772571076" x2="54.21961505331055" y1="26.818313649435495" y2="22.513508569990535" /><path d="M 56.25429882871897 25.957352633546506 a86.0,86.0 0 0,1 42.265352541879196,-11.944610805530505" fill="none" id="id12" stroke="none" /><text fill="#e1ed5e" style="font-size:6.75px; font-family:Arial;" text-anchor="middle"><textPath startOffset="22.20632615414155" xlink:href="#id12">December</textPath></text><path d="M 90.26544431104013 81.39251694778311 l -3.3296260452031374 -6.364539090017497 a28.182880162529223,28.182880162529223 0 0,0 0.43178791056364074,-0.2211785385241302 l 3.2195776470507327 6.420910153854133" fill="#ff3a05" stroke="none" /><path d="M 96.04723909329186 79.375362276772 l -1.3797040880533646 -7.198992717486521 a28.330012245352332,28.330012245352332 0 0,0 0.4797281225553365,-0.08766724805199859 l 1.255580844395135 7.2216754468892566" fill="#ff3c05" stroke="none" /></svg>