<?xml version="1.0" encoding="utf-8" ?>
<svg baseProfile="full" height="200mm" version="1.1" viewBox="0,0,200,200" width="200mm" xmlns="http://www.w3.org/2000/svg" xmlns:ev="http://www.w3.org/2001/xml-events" xmlns:xlink="http://www.w3.org/1999/xlink"><defs /><rect fill="#1a1a1a" height="200" width="200" x="0" y="0" /><text alignment-baseline="middle" fill="#e1ed5e" style="dominant-baseline: central; font-size:9.0px; font-family:Arial;" text-anchor="middle" x="100.0" y="100.0">2024</text><line stroke="#e1ed5e" stroke-width="0.3" x1="100.0" x2="100.0" y1="15.0" y2="10.0" /><path d="M 100.0 14.0 a86.0,86.0 0 0,1 42.35913384403234,11.155469271406648" fill="none" id="id25" stroke="none" /><text fill="#e1ed5e" style="font-size:6.75px; font-family:Arial;" text-anchor="middle"><textPath startOffset="22.145653131862478" xlink:href="#id25">January</textPath></text><path d="M 100.0 79.0 l 0.0 -31.26223708089656 a52.26223708089656,52.26223708089656 0 0,0 0.8971507954493655,0.007700960574297884 l -0.5366578706005107 31.2576305185167" fill="#8cff24" stroke="none" /><path d="M 101.08105385017728 79.02784411241856 l 1.0139529233051505 -19.670415832418904 a40.69653166298461,40.69653166298461 0 0,0 0.6973750841688137,0.04195235332849645 l -1.3514723596064266 19.650111501265716" fill="#ffe615" stroke="none" /><path d="M 109.06512990194946 81.05736502329252 l 8.179514390151004 -17.092039171555214 a39.94841045314,39.94841045314 0 0,0 0.616042061120071,0.30133704235518466 l -8.471716700533143 16.949108379102807" fill="#ffdd14" stroke="none" /><line stroke="#e1ed5e" stroke-width="0.3" x1="143.13028292997686" x2="145.6673583964461" y1="26.7553504044142" y2="22.446841604673864" /><path d="M 143.63769802327073 25.89364864446614 a86.0,86.0 0 0,1 29.32050498858742,28.57503671076993" fill="none" id="id26" stroke="none" /><text fill="#e1ed5e" style="font-size:6.75px; font-family:Arial;" text-anchor="middle"><textPath startOffset="20.669276256404974" xlink:href="#id26">February</textPath></text><line stroke="#e1ed5e" stroke-width="0.3" x1="172.87174338648825" x2="177.1583165268699" y1="56.24261187166439" y2="53.66864786411523" /><path d="M 173.72905801456457 55.72781907015455 a86.0,86.0 0 0,1 12.242430191666344,42.057860355516425" fill="none" id="id27" stroke="none" /><text fill="#e1ed5e" style="font-size:6.75px; font-family:Arial;" text-anchor="middle"><textPath startOffset="22.145653131862474" xlink:href="#id27">March</textPath></text><path d="M 120.77682067341334 96.94652285012252 l 62.330462020240034 -9.160431449632455 a84.0,84.0 0 0,0 0.19742193377914985,1.4284467671996575 l -62.478528470574396 8.089096374232712" fill="#4dd2ff" stroke="none" /><line stroke="#e1ed5e" stroke-width="0.3" x1="184.99686870605535" x2="189.99668451229388" y1="99.2704041080226" y2="99.22748670261217" /><path d="M 185.99683186730306 99.26182062694052 a86.0,86.0 0 0,1 -10.086455211305974,41.156179273409016" fill="none" id="id28" stroke="none" /><text fill="#e1ed5e" style="font-size:6.75px; font-family:Arial;" text-anchor="middle"><textPath startOffset="21.40746469413373" xlink:href="#id28">April</textPath></text><path d="M 120.99922638620191 99.81974689727618 l 7.415711252863279 -0.06365496221855725 a28.415984448477364,28.415984448477364 0 0,0 0.0,0.48781612988476736 l -7.415711252863279 -0.06365496221855635" fill="#ff3e05" stroke="none" /><path d="M 120.98066250479742 100.90099992219065 l 12.652855782007105 0.5433680691670758 a33.664517689152675,33.664517689152675 0 0,0 -0.029750473334369847,0.5771512347839507 l -12.641663719216163 -0.7604910973277572" fill="#ff880c" stroke="none" /><line stroke="#e1ed5e" stroke-width="0.3" x1="174.33088141563837" x2="178.70328620479359" y1="141.23008692659167" y2="143.65538615756765" /><path d="M 175.20536237346943 141.71514677278685 a86.0,86.0 0 0,1 -30.301960400862466,31.631185727798858" fill="none" id="id29" stroke="none" /><text fill="#e1ed5e" style="font-size:6.75px; font-family:Arial;" text-anchor="middle"><textPath startOffset="22.145653131862474" xlink:href="#id29">May</textPath></text><path d="M 116.35404254752997 113.17365903436017 l 5.786128666006681 4.660895674777476 a28.42988784779041,28.42988784779041 0 0,0 -0.3094162522048375,0.37743751731103387 l -5.705265594563215 -4.759535473787002" fill="#ff3e05" stroke="none" /><line stroke="#e1ed5e" stroke-width="0.3" x1="143.1302829299769" x2="145.66735839644613" y1="173.24464959558577" y2="177.55315839532614" /><path d="M 143.63769802327073 174.10635135553383 a86.0,86.0 0 0,1 -40.68552437913181,11.842963189579606" fill="none" id="id30" stroke="none" /><text fill="#e1ed5e" style="font-size:6.75px; font-family:Arial;" text-anchor="middle"><textPath startOffset="21.407464694133747" xlink:href="#id30">June</textPath></text><path d="M 109.06512990194946 118.94263497670748 l 3.2107286774350263 6.709188065007121 a28.437874906970247,28.437874906970247 0 0,0 -0.44215652907790837,0.20695158140042644 l -3.0950834344856117 -6.76331587797808" fill="#ff3e05" stroke="none" /><path d="M 107.407793817531 119.65005319985036 l 2.620804091067497 6.951994221813573 a28.429592030783752,28.429592030783752 0 0,0 -0.4581372551078381,0.1682343459378049 l -2.5010776843055313 -6.995959416760099" fill="#ff3e05" stroke="none" /><path d="M 106.0420521117495 120.11202640906438 l 2.14178866503589 7.129317886893204 a28.444087064110118,28.444087064110118 0 0,0 -0.46883980686607496,0.13647243483415547 l -2.0190888457882084 -7.165034016029877" fill="#ff3e05" stroke="none" /><path d="M 105.3480935250658 120.30758222061773 l 2.386872023759176 9.06334185170879 a30.3723702220271,30.3723702220271 0 0,0 -0.5053307327511825,0.12845309618488981 l -2.230935997782596 -9.102980179728949" fill="#ff5a08" stroke="none" /><path d="M 102.51750503828377 120.84855314841334 l 0.7404120628795333 6.1316740224653925 a27.17621537356288,27.17621537356288 0 0,0 -0.4636315380339049,0.05195088087954518 l -0.6350446232448291 -6.143480663851909" fill="#ff2c04" stroke="none" /><line stroke="#e1ed5e" stroke-width="0.3" x1="101.45913802915013" x2="101.54496967792366" y1="184.9874750549273" y2="189.98673829345242" /><path d="M 101.47630435890484 185.9873277026323 a86.0,86.0 0 0,1 -42.54439059252881,-10.42667462771756" fill="none" id="id31" stroke="none" /><text fill="#e1ed5e" style="font-size:6.75px; font-family:Arial;" text-anchor="middle"><textPath startOffset="22.145653131862474" xlink:href="#id31">July</textPath></text><path d="M 92.93061703081489 119.77432235084164 l -1.1587481807879239 3.241224891936076 a24.442126689502487,24.442126689502487 0 0,0 -0.39388003944628763,-0.1446382062917043 l 1.2142173718883302 -3.220855836635652" fill="#ff0300" stroke="none" /><line stroke="#e1ed5e" stroke-width="0.3" x1="58.13341422392154" x2="55.67067388415222" y1="173.97424548756322" y2="178.32567169271397" /><path d="M 57.64086615596768 174.84453072859336 a86.0,86.0 0 0,1 -31.369924170532247,-30.572349798747897" fill="none" id="id32" stroke="none" /><text fill="#e1ed5e" style="font-size:6.75px; font-family:Arial;" text-anchor="middle"><textPath startOffset="22.145653131862474" xlink:href="#id32">August</textPath></text><path d="M 86.96720088162412 116.46651593811092 l -12.732757027478367 16.087422557863707 a41.516536405447724,41.516536405447724 0 0,0 -0.5550350292070083,-0.4470969306609518 l 13.007042827040637 -15.866477333409344" fill="#fff116" stroke="none" /><path d="M 84.83555147118756 114.52719865689866 l -5.375605622789625 5.149708585513722 a28.44423497261345,28.44423497261345 0 0,0 -0.3347536541579365,-0.3554967801860953 l 5.463215110683815 -5.056670345383137" fill="#ff3e05" stroke="none" /><path d="M 84.3458050057657 113.99807769240083 l -2.4378836325214253 2.179970576937128 a24.27040491713602,24.27040491713602 0 0,0 -0.27505180207254026,-0.3129584601956516 l 2.4749464985525584 -2.137799838930176" fill="#ff0000" stroke="none" /><path d="M 82.37810715431573 111.42229804090323 l -8.261755537339665 5.355170123604949 a30.84552952418069,30.84552952418069 0 0,0 -0.2841935359695355,-0.44679944183576464 l 8.352466764935091 -5.2125570070905125" fill="#ff6108" stroke="none" /><line stroke="#e1ed5e" stroke-width="0.3" x1="26.387840678322732" x2="22.057713659400548" y1="142.50000000000003" y2="145.00000000000006" /><path d="M 25.521815274538298 143.00000000000003 a86.0,86.0 0 0,1 -11.493303480769221,-40.785679425670985" fill="none" id="id33" stroke="none" /><text fill="#e1ed5e" style="font-size:6.75px; font-family:Arial;" text-anchor="middle"><textPath startOffset="21.40746469413373" xlink:href="#id33">September</textPath></text><path d="M 81.63589988554817 110.18625677009913 l -6.490698940060114 3.6002812884270843 a28.422344514120567,28.422344514120567 0 0,0 -0.2330018468067181,-0.428697154579418 l 6.5515461364821626 -3.4883293003730795" fill="#ff3e05" stroke="none" /><path d="M 81.4637452351635 109.86951160357371 l -6.542276681783462 3.4833938378501337 a28.411843010384118,28.411843010384118 0 0,0 -0.22552499882769142,-0.4324739218378264 l 6.601109749586103 -3.3705736729078044" fill="#ff3e05" stroke="none" /><path d="M 80.5471966667186 107.91128576633889 l -11.562648493579713 4.702428481962481 a33.48229441304976,33.48229441304976 0 0,0 -0.21196098021167448,-0.5342801332937571 l 11.641668148757512 -4.503247331455158" fill="#ff860c" stroke="none" /><path d="M 79.73907114497094 105.5222062557868 l -9.259999718759042 2.523854100737469 a30.59778278110246,30.59778278110246 0 0,0 -0.13377134873128713,-0.5079516000218326 l 9.301960548295062 -2.364521996342834" fill="#ff5d08" stroke="none" /><line stroke="#e1ed5e" stroke-width="0.3" x1="15.003131293944662" x2="10.003315487706104" y1="100.72959589197737" y2="100.7725132973878" /><path d="M 14.003168132696942 100.73817937305945 a86.0,86.0 0 0,1 10.791469493833604,-42.45332614584628" fill="none" id="id34" stroke="none" /><text fill="#e1ed5e" style="font-size:6.75px; font-family:Arial;" text-anchor="middle"><textPath startOffset="22.145653131862435" xlink:href="#id34">October</textPath></text><line stroke="#e1ed5e" stroke-width="0.3" x1="26.387840678322718" x2="22.05771365940052" y1="57.49999999999999" y2="54.99999999999999" /><path d="M 25.521815274538284 56.99999999999999 a86.0,86.0 0 0,1 29.574782752854787,-30.34633250058573" fill="none" id="id35" stroke="none" /><text fill="#e1ed5e" style="font-size:6.75px; font-family:Arial;" text-anchor="middle"><textPath startOffset="21.40746469413373" xlink:href="#id35">November</textPath></text><path d="M 82.37810715431573 88.57770195909679 l -5.054732306973564 -3.276416411837077 a27.023721706629352,27.023721706629352 0 0,0 0.25566443202450767,-0.38710853578664756 l 4.997743436028327 3.3627048259627856" fill="#ff2904" stroke="none" /><line stroke="#e1ed5e" stroke-width="0.3" x1="56.869717070023135" x2="54.33264160355391" y1="26.7553504044142" y2="22.446841604673864" /><path d="M 56.362301976729285 25.89364864446614 a86.0,86.0 0 0,1 42.16139366436587,-11.88097634709845" fill="none" id="id36" stroke="none" /><text fill="#e1ed5e" style="font-size:6.75px; font-family:Arial;" text-anchor="middle"><textPath startOffset="22.145653131862474" xlink:href="#id36">December</textPath></text><path d="M 89.97174638481275 81.54914285379989 l -5.0349042752953475 -9.26365677345626 a31.543509751396325,31.543509751396325 0 0,0 0.47797607582095036,-0.2544953382651171 l 4.875139383687835 9.348722579443953" fill="#ff6b09" stroke="none" /><path d="M 93.27111125876988 80.10723608172694 l -3.0904714472744375 -9.136429693078124 a30.64496559366482,30.64496559366482 0 0,0 0.4997716153046135,-0.16428485667625345 l 2.9331770943220628 9.188135471156407" fill="#ff5e08" stroke="none" /><path d="M 95.35216902796891 79.52079915486377 l -1.6415412823843254 -7.232933774878723 a28.416871899497345,28.416871899497345 0 0,0 0.476642394529668,-0.103881991434545 l 1.517136471235539 7.260047224446982" fill="#ff3e05" stroke="none" /><path d="M 96.41257539226777 79.30868818359171 l -1.2668201847532432 -7.306682181293064 a28.4156886314707,28.4156886314707 0 0,0 0.481338081545389,-0.07920399814767264 l 1.1412046001547813 7.327352177936405" fill="#ff3e05" stroke="none" /></svg>